<svg version="1.1" id="Warstwa_1" xmlns="http://www.w3.org/2000/svg" xmlns:xlink="http://www.w3.org/1999/xlink" x="0px" y="0px" width="300px" height="90px" viewBox="0 0 300 90" enable-background="new 0 0 90 90" xml:space="preserve"><style>.st0{fill:#f3f3f3}.st1{fill:#f3f3f3}</style><g>
  <path id="logo" class="st1" d="M66.44,10.69L47.1,7.47l-8.76,16.67l13.9,18L38.9,48.1L22.27,3.33L2.48,0.03C2.36,0.01,2.24,0,2.13,0
C0.98,0,0,0.94,0,2.13v80.24c0,1.2,0.98,2.13,2.13,2.13c0.12,0,0.24-0.01,0.36-0.03l44.55-7.45L22.06,55.78l16.81-7.56l10.63,28.4
l16.94-2.8c1.03-0.17,1.78-1.06,1.78-2.1V12.79C68.22,11.75,67.47,10.86,66.44,10.69z M20.92,53.24l-4.01,1.81l3.35,2.85
l20.42,17.37L3.28,81.52c-0.26,0.04-0.5-0.16-0.5-0.42V3.4c0-0.26,0.24-0.46,0.5-0.42l16.94,2.82l15.2,40.91L20.92,53.24z
M65.08,71.22L51.3,73.5l-8.95-23.89l11.02-4.94l3.22-1.44l-2.16-2.8L41.63,23.85l6.99-13.3l16.45,2.74
c0.21,0.03,0.36,0.21,0.36,0.42V70.8C65.44,71.01,65.29,71.19,65.08,71.22z"></path>
</g>
</svg>
