<svg version="1.1" id="Warstwa_1" xmlns="http://www.w3.org/2000/svg" xmlns:xlink="http://www.w3.org/1999/xlink" x="0px" y="0px" width="300px" height="90px" viewBox="0 0 300 90" enable-background="new 0 0 300 90" xml:space="preserve"><style>.st0{fill:#202020}.st1{fill:url(#SVGID_1_)}</style><g><g>
<path class="st0" d="M120.41,58.84V24.3h-3.78v30.56L89.17,24.74c-0.26-0.29-0.63-0.45-1.02-0.45h-2.29
c-0.76,0-1.37,0.61-1.37,1.37v34.55h3.86V29.66l27.45,30.1c0.26,0.29,0.63,0.45,1.02,0.45h2.21
C119.8,60.21,120.41,59.6,120.41,58.84z"></path>
</g>
  <g>
<path class="st0" d="M217.59,50.22c0,5.6,4.39,9.99,10,9.99h15.94c5.27,0,9.61-4.1,9.98-9.27h-3.93
c-0.36,3.01-2.93,5.36-6.04,5.36H227.6c-3.41,0-6.08-2.67-6.08-6.08V34.29c0-3.35,2.73-6.08,6.08-6.08h15.94
c3.08,0,5.71,2.34,6.06,5.36h3.8l-0.01-0.05c-0.43-5.26-4.67-9.22-9.86-9.22H227.6c-5.51,0-10,4.48-10,10V50.22z"></path>
</g>
  <g>
<g>
<path class="st0" d="M209.14,50.17V34.21l-0.07-0.8c-0.35-5.2-4.59-9.12-9.87-9.12h-25.97v35.91h25.97
C204.68,60.21,209.14,55.71,209.14,50.17z M177.15,28.08h22.05c3.11,0,5.76,2.46,6.02,5.59l0,0.06v16.45
c0,3.37-2.7,6.1-6.02,6.1h-22.05V28.08z"></path>
</g>
</g>
  <g>
<path class="st0" d="M160.82,33.57h3.96v-0.08c-0.44-5.16-4.84-9.2-10.04-9.2h-15.99c-5.36,0-9.88,4.58-9.88,10v15.92
c0,5.51,4.43,9.99,9.88,9.99h15.99c5.39,0,9.66-4.02,10.02-9.27h-3.95c-0.35,3.06-2.89,5.36-6.07,5.36h-15.99
c-3.36,0-6.1-2.73-6.1-6.08V34.29c0-3.3,2.79-6.08,6.1-6.08h15.99C157.83,28.21,160.46,30.55,160.82,33.57z"></path></g>
  <linearGradient id="SVGID_1_" gradientUnits="userSpaceOnUse" x1="5.3684" y1="86.7034" x2="53.6191" y2="3.1308">
<stop offset="0" style="stop-color:#0978BF"></stop>
    <stop offset="0.2049" style="stop-color:#0D7CC0"></stop>
    <stop offset="0.4172" style="stop-color:#1A87C6"></stop>
    <stop offset="0.6329" style="stop-color:#2F9ACF"></stop>
    <stop offset="0.8496" style="stop-color:#4BB3DC"></stop>
    <stop offset="1" style="stop-color:#64C9E7"></stop>
</linearGradient>
  <path id="logo" class="st1" d="M66.44,10.69L47.1,7.47l-8.76,16.67l13.9,18L38.9,48.1L22.27,3.33L2.48,0.03C2.36,0.01,2.24,0,2.13,0
C0.98,0,0,0.94,0,2.13v80.24c0,1.2,0.98,2.13,2.13,2.13c0.12,0,0.24-0.01,0.36-0.03l44.55-7.45L22.06,55.78l16.81-7.56l10.63,28.4
l16.94-2.8c1.03-0.17,1.78-1.06,1.78-2.1V12.79C68.22,11.75,67.47,10.86,66.44,10.69z M20.92,53.24l-4.01,1.81l3.35,2.85
l20.42,17.37L3.28,81.52c-0.26,0.04-0.5-0.16-0.5-0.42V3.4c0-0.26,0.24-0.46,0.5-0.42l16.94,2.82l15.2,40.91L20.92,53.24z
M65.08,71.22L51.3,73.5l-8.95-23.89l11.02-4.94l3.22-1.44l-2.16-2.8L41.63,23.85l6.99-13.3l16.45,2.74
c0.21,0.03,0.36,0.21,0.36,0.42V70.8C65.44,71.01,65.29,71.19,65.08,71.22z"></path>
</g>
</svg>
